<svg xmlns="http://www.w3.org/2000/svg" width="800" height="1000" viewBox="0 0 800 1000">
  <defs>
    <style>
      @import url('https://fonts.googleapis.com/css2?family=DM+Mono:wght@300;400;500&amp;family=Fraunces:ital,opsz,wght@1,9..144,300&amp;display=swap');
      .mono  { font-family: 'DM Mono', 'Courier New', Courier, monospace; }
      .serif { font-family: 'Fraunces', Georgia, 'Times New Roman', serif; font-style: italic; font-weight: 300; }
    </style>
  </defs>

  <rect width="800" height="1000" fill="#f5f4f0"/>

  <!-- HEADER -->
  <rect width="800" height="64" fill="#0e0e0e"/>
  <text class="mono" x="48" y="38" font-size="11" letter-spacing="3" fill="#9a9690">NODEFLOW · BRAND KIT · 2026</text>
  <text class="mono" x="752" y="38" text-anchor="end" font-size="11" letter-spacing="2" fill="#9a9690">v3.0 · CONFIDENCIAL</text>

  <!-- ══ 01 · LOGÓTIPO PRINCIPAL ══ -->
  <text class="mono" x="48" y="100" font-size="9" letter-spacing="3" fill="#9a9690">01 · LOGÓTIPO PRINCIPAL</text>
  <line x1="48" y1="108" x2="752" y2="108" stroke="#0e0e0e" stroke-width="0.5" opacity="0.15"/>

  <rect x="48" y="120" width="704" height="160" rx="12" fill="#0e0e0e"/>
  <!-- Ícone -->
  <rect x="112" y="158" width="52" height="52" rx="5" fill="#f5f4f0"/>
  <rect x="112" y="218" width="52" height="52" rx="5" fill="none" stroke="#f5f4f0" stroke-width="1.8"/>
  <rect x="174" y="158" width="52" height="52" rx="5" fill="none" stroke="#f5f4f0" stroke-width="1.8"/>
  <rect x="174" y="218" width="52" height="52" rx="5" fill="#00c896"/>
  <line x1="164" y1="184" x2="174" y2="184" stroke="#f5f4f0" stroke-width="1.2" opacity="0.5"/>
  <line x1="200" y1="210" x2="200" y2="218" stroke="#f5f4f0" stroke-width="1.2" opacity="0.5"/>
  <!-- Wordmark apenas -->
  <text class="mono" x="264" y="212" font-size="40" font-weight="500" fill="#f5f4f0" letter-spacing="-1">nodeflow</text>

  <!-- ══ 02 · VARIANTES ══ -->
  <text class="mono" x="48" y="322" font-size="9" letter-spacing="3" fill="#9a9690">02 · VARIANTES DE COR</text>
  <line x1="48" y1="330" x2="752" y2="330" stroke="#0e0e0e" stroke-width="0.5" opacity="0.15"/>

  <!-- Positivo -->
  <rect x="48" y="342" width="220" height="120" rx="10" fill="#f5f4f0" stroke="#e8e6e0" stroke-width="1"/>
  <rect x="68" y="371" width="32" height="32" rx="3" fill="#0e0e0e"/>
  <rect x="68" y="409" width="32" height="32" rx="3" fill="none" stroke="#0e0e0e" stroke-width="1.4"/>
  <rect x="108" y="371" width="32" height="32" rx="3" fill="none" stroke="#0e0e0e" stroke-width="1.4"/>
  <rect x="108" y="409" width="32" height="32" rx="3" fill="#00c896"/>
  <line x1="100" y1="387" x2="108" y2="387" stroke="#0e0e0e" stroke-width="1" opacity="0.4"/>
  <line x1="124" y1="403" x2="124" y2="409" stroke="#0e0e0e" stroke-width="1" opacity="0.4"/>
  <text class="mono" x="152" y="396" font-size="17" font-weight="500" fill="#0e0e0e" letter-spacing="-0.5">nodeflow</text>
  <text class="mono" x="158" y="454" text-anchor="middle" font-size="9" letter-spacing="2" fill="#9a9690">POSITIVO</text>

  <!-- Acento azul -->
  <rect x="290" y="342" width="220" height="120" rx="10" fill="#1a1aff"/>
  <rect x="310" y="371" width="32" height="32" rx="3" fill="#ffffff"/>
  <rect x="310" y="409" width="32" height="32" rx="3" fill="none" stroke="#ffffff" stroke-width="1.4"/>
  <rect x="350" y="371" width="32" height="32" rx="3" fill="none" stroke="#ffffff" stroke-width="1.4"/>
  <rect x="350" y="409" width="32" height="32" rx="3" fill="#00c896"/>
  <line x1="342" y1="387" x2="350" y2="387" stroke="#ffffff" stroke-width="1" opacity="0.5"/>
  <line x1="366" y1="403" x2="366" y2="409" stroke="#ffffff" stroke-width="1" opacity="0.5"/>
  <text class="mono" x="394" y="396" font-size="17" font-weight="500" fill="#ffffff" letter-spacing="-0.5">nodeflow</text>
  <text class="mono" x="400" y="454" text-anchor="middle" font-size="9" letter-spacing="2" fill="rgba(255,255,255,0.35)">ACENTO</text>

  <!-- Só ícone -->
  <rect x="532" y="342" width="220" height="120" rx="10" fill="#0e0e0e"/>
  <rect x="590" y="362" width="44" height="44" rx="4" fill="#f5f4f0"/>
  <rect x="590" y="412" width="44" height="44" rx="4" fill="none" stroke="#f5f4f0" stroke-width="1.5"/>
  <rect x="642" y="362" width="44" height="44" rx="4" fill="none" stroke="#f5f4f0" stroke-width="1.5"/>
  <rect x="642" y="412" width="44" height="44" rx="4" fill="#00c896"/>
  <line x1="634" y1="384" x2="642" y2="384" stroke="#f5f4f0" stroke-width="1" opacity="0.5"/>
  <line x1="664" y1="406" x2="664" y2="412" stroke="#f5f4f0" stroke-width="1" opacity="0.5"/>
  <text class="mono" x="642" y="454" text-anchor="middle" font-size="9" letter-spacing="2" fill="#9a9690">SÓ ÍCONE</text>

  <!-- ══ 03 · VERSÕES MICRO ══ -->
  <text class="mono" x="48" y="494" font-size="9" letter-spacing="3" fill="#9a9690">03 · VERSÕES MICRO · AVATAR / APP / FAVICON</text>
  <line x1="48" y1="502" x2="752" y2="502" stroke="#0e0e0e" stroke-width="0.5" opacity="0.15"/>

  <!-- 80px escuro -->
  <rect x="48" y="514" width="80" height="80" rx="16" fill="#0e0e0e"/>
  <rect x="63" y="529" width="20" height="20" rx="2" fill="#f5f4f0"/>
  <rect x="63" y="555" width="20" height="20" rx="2" fill="none" stroke="#f5f4f0" stroke-width="1.2"/>
  <rect x="89" y="529" width="20" height="20" rx="2" fill="none" stroke="#f5f4f0" stroke-width="1.2"/>
  <rect x="89" y="555" width="20" height="20" rx="2" fill="#00c896"/>
  <line x1="83" y1="539" x2="89" y2="539" stroke="#f5f4f0" stroke-width="0.8" opacity="0.5"/>
  <line x1="99" y1="549" x2="99" y2="555" stroke="#f5f4f0" stroke-width="0.8" opacity="0.5"/>
  <text class="mono" x="88" y="608" text-anchor="middle" font-size="9" letter-spacing="1" fill="#9a9690">80px</text>

  <!-- 80px claro -->
  <rect x="148" y="514" width="80" height="80" rx="16" fill="#f5f4f0" stroke="#e8e6e0" stroke-width="1"/>
  <rect x="163" y="529" width="20" height="20" rx="2" fill="#0e0e0e"/>
  <rect x="163" y="555" width="20" height="20" rx="2" fill="none" stroke="#0e0e0e" stroke-width="1.2"/>
  <rect x="189" y="529" width="20" height="20" rx="2" fill="none" stroke="#0e0e0e" stroke-width="1.2"/>
  <rect x="189" y="555" width="20" height="20" rx="2" fill="#00c896"/>
  <line x1="183" y1="539" x2="189" y2="539" stroke="#0e0e0e" stroke-width="0.8" opacity="0.4"/>
  <line x1="199" y1="549" x2="199" y2="555" stroke="#0e0e0e" stroke-width="0.8" opacity="0.4"/>
  <text class="mono" x="188" y="608" text-anchor="middle" font-size="9" letter-spacing="1" fill="#9a9690">claro</text>

  <!-- 48px -->
  <rect x="248" y="526" width="48" height="48" rx="10" fill="#0e0e0e"/>
  <rect x="259" y="537" width="11" height="11" rx="1.5" fill="#f5f4f0"/>
  <rect x="259" y="553" width="11" height="11" rx="1.5" fill="none" stroke="#f5f4f0" stroke-width="1"/>
  <rect x="275" y="537" width="11" height="11" rx="1.5" fill="none" stroke="#f5f4f0" stroke-width="1"/>
  <rect x="275" y="553" width="11" height="11" rx="1.5" fill="#00c896"/>
  <text class="mono" x="272" y="608" text-anchor="middle" font-size="9" letter-spacing="1" fill="#9a9690">48px</text>

  <!-- 32px favicon -->
  <rect x="316" y="534" width="32" height="32" rx="6" fill="#0e0e0e"/>
  <rect x="323" y="541" width="7" height="7" rx="1" fill="#f5f4f0"/>
  <rect x="323" y="553" width="7" height="7" rx="1" fill="none" stroke="#f5f4f0" stroke-width="0.8"/>
  <rect x="335" y="541" width="7" height="7" rx="1" fill="none" stroke="#f5f4f0" stroke-width="0.8"/>
  <rect x="335" y="553" width="7" height="7" rx="1" fill="#00c896"/>
  <text class="mono" x="332" y="608" text-anchor="middle" font-size="9" letter-spacing="1" fill="#9a9690">32px</text>

  <!-- 16px -->
  <rect x="368" y="542" width="16" height="16" rx="3" fill="#0e0e0e"/>
  <rect x="371" y="545" width="4" height="4" rx="0.5" fill="#f5f4f0"/>
  <rect x="371" y="552" width="4" height="4" rx="0.5" fill="none" stroke="#f5f4f0" stroke-width="0.6"/>
  <rect x="378" y="545" width="4" height="4" rx="0.5" fill="none" stroke="#f5f4f0" stroke-width="0.6"/>
  <rect x="378" y="552" width="4" height="4" rx="0.5" fill="#00c896"/>
  <text class="mono" x="376" y="608" text-anchor="middle" font-size="9" letter-spacing="1" fill="#9a9690">16px</text>

  <!-- ══ 04 · PALETA ══ -->
  <text class="mono" x="48" y="644" font-size="9" letter-spacing="3" fill="#9a9690">04 · PALETA DE CORES</text>
  <line x1="48" y1="652" x2="752" y2="652" stroke="#0e0e0e" stroke-width="0.5" opacity="0.15"/>

  <rect x="48" y="664" width="154" height="90" rx="8" fill="#0e0e0e"/>
  <text class="mono" x="64" y="694" font-size="12" font-weight="500" fill="#f5f4f0">Ink</text>
  <text class="mono" x="64" y="712" font-size="10" fill="#9a9690">#0e0e0e</text>
  <text class="mono" x="64" y="728" font-size="9" fill="#9a9690">Principal</text>

  <rect x="218" y="664" width="154" height="90" rx="8" fill="#f5f4f0" stroke="#e8e6e0" stroke-width="1"/>
  <text class="mono" x="234" y="694" font-size="12" font-weight="500" fill="#0e0e0e">Paper</text>
  <text class="mono" x="234" y="712" font-size="10" fill="#9a9690">#f5f4f0</text>
  <text class="mono" x="234" y="728" font-size="9" fill="#9a9690">Fundo / Texto inv.</text>

  <rect x="388" y="664" width="154" height="90" rx="8" fill="#00c896"/>
  <text class="mono" x="404" y="694" font-size="12" font-weight="500" fill="#004d3b">Signal</text>
  <text class="mono" x="404" y="712" font-size="10" fill="#004d3b">#00c896</text>
  <text class="mono" x="404" y="728" font-size="9" fill="#004d3b">Acento</text>

  <rect x="558" y="664" width="194" height="90" rx="8" fill="#1a1aff"/>
  <text class="mono" x="574" y="694" font-size="12" font-weight="500" fill="#ffffff">Electric</text>
  <text class="mono" x="574" y="712" font-size="10" fill="rgba(255,255,255,0.7)">#1a1aff</text>
  <text class="mono" x="574" y="728" font-size="9" fill="rgba(255,255,255,0.7)">Variante</text>

  <!-- ══ 05 · TIPOGRAFIA ══ -->
  <text class="mono" x="48" y="792" font-size="9" letter-spacing="3" fill="#9a9690">05 · TIPOGRAFIA</text>
  <line x1="48" y1="800" x2="752" y2="800" stroke="#0e0e0e" stroke-width="0.5" opacity="0.15"/>

  <rect x="48" y="812" width="338" height="110" rx="8" fill="#0e0e0e"/>
  <text class="mono" x="68" y="840" font-size="9" letter-spacing="2" fill="#9a9690">WORDMARK · HEADINGS</text>
  <text class="mono" x="68" y="878" font-size="26" font-weight="500" fill="#f5f4f0" letter-spacing="-0.5">DM Mono</text>
  <text class="mono" x="68" y="900" font-size="10" fill="#9a9690">Light 300 · Regular 400 · Medium 500</text>

  <rect x="414" y="812" width="338" height="110" rx="8" fill="#f5f4f0" stroke="#e8e6e0" stroke-width="1"/>
  <text class="mono" x="434" y="840" font-size="9" letter-spacing="2" fill="#9a9690">VOZ DA MARCA · SLOGAN</text>
  <text class="serif" x="434" y="878" font-size="22" fill="#0e0e0e">Fraunces Italic</text>
  <text class="serif" x="434" y="904" font-size="12">
    <tspan fill="#9a9690">Menos atrito. </tspan><tspan fill="#00c896">Mais impacto.</tspan>
  </text>

  <!-- ══ FOOTER ══ -->
  <rect x="0" y="982" width="800" height="18" fill="#0e0e0e"/>
  <text class="mono" x="400" y="994" text-anchor="middle" font-size="8" letter-spacing="2" fill="#9a9690">NODEFLOW · BRAND KIT 2026 · CONFIDENCIAL</text>
</svg>
